<?xml version="1.0" encoding="UTF-8" standalone="no"?>
<svg
   width="1500pt"
   height="455pt"
   viewBox="0 0 1500 455"
   version="1.1"
   id="svg16"
   xmlns="http://www.w3.org/2000/svg"
   xmlns:svg="http://www.w3.org/2000/svg">
  <defs
     id="defs16" />
  <g
     id="#ffffffff" />
  <g
     id="#010101ff">
    <path
       fill="#010101"
       stroke="#010101"
       stroke-width="0.09375"
       opacity="1.00"
       d=" M 1137.86 33.48 C 1152.89 31.64 1168.20 32.17 1183.08 34.98 C 1202.48 39.10 1220.90 48.08 1235.85 61.16 C 1250.40 73.96 1260.69 91.72 1263.61 110.94 C 1263.92 115.64 1264.64 120.30 1264.87 125.01 C 1257.24 125.45 1249.61 124.63 1241.98 124.86 C 1227.79 125.28 1213.58 125.31 1199.40 124.86 C 1199.51 116.81 1195.54 109.40 1190.87 103.10 C 1181.62 92.41 1166.67 88.72 1153.02 89.21 C 1140.56 89.10 1128.27 94.60 1120.07 103.98 C 1108.52 117.45 1103.51 135.50 1103.65 153.02 C 1103.10 170.73 1106.57 189.28 1117.10 203.89 C 1125.05 214.28 1137.57 221.94 1150.94 221.73 C 1162.54 222.47 1174.87 220.55 1184.27 213.25 C 1194.32 205.17 1199.40 191.90 1199.13 179.19 C 1212.76 179.33 1226.38 178.67 1240.01 179.13 C 1248.49 179.50 1257.02 178.52 1265.46 179.34 C 1264.26 184.13 1264.05 189.08 1263.52 193.96 C 1260.25 216.22 1249.79 237.83 1232.58 252.59 C 1221.39 262.87 1207.49 269.80 1193.01 274.13 C 1153.91 286.40 1108.42 277.66 1077.57 250.38 C 1051.60 226.96 1037.86 191.68 1038.17 156.99 C 1037.38 123.94 1049.01 90.10 1072.12 66.12 C 1089.43 48.12 1113.08 36.46 1137.86 33.48 M 1098.20 246.22 C 1098.73 246.72 1098.73 246.72 1098.20 246.22 Z"
       id="path1" />
    <path
       fill="#010101"
       stroke="#010101"
       stroke-width="0.09375"
       opacity="1.00"
       d=" M 684.30 101.06 C 684.33 79.55 684.08 58.04 684.46 36.54 C 743.11 36.47 801.76 36.57 860.40 36.57 C 860.66 54.57 860.37 72.58 860.52 90.59 C 823.64 90.50 786.76 90.69 749.87 90.52 C 749.83 104.54 749.87 118.56 749.85 132.58 C 781.71 132.74 813.58 132.71 845.45 132.60 C 845.57 150.02 845.62 167.44 845.38 184.86 C 813.54 184.78 781.70 184.87 749.85 184.82 C 749.85 214.63 749.83 244.45 749.90 274.26 C 728.01 274.24 706.13 274.10 684.25 274.33 C 684.37 216.58 684.32 158.82 684.30 101.06 Z"
       id="path2" />
    <path
       fill="#010101"
       stroke="#010101"
       stroke-width="0.09375"
       opacity="1.00"
       d=" M 838.82 223.76 C 862.17 161.42 885.22 98.95 908.86 36.72 C 930.33 36.84 951.80 36.70 973.26 36.84 C 974.35 37.45 974.30 39.03 974.88 40.04 C 980.86 57.77 988.05 75.05 994.26 92.68 C 1016.99 153.17 1039.45 213.75 1062.18 274.23 C 1039.33 274.22 1016.47 274.18 993.62 274.25 C 989.45 261.43 984.62 248.82 980.67 235.93 C 980.25 234.81 980.02 233.45 978.93 232.77 C 953.29 232.64 927.63 232.78 901.98 232.72 C 897.12 246.55 892.67 260.54 887.36 274.21 C 864.79 274.33 842.21 273.98 819.65 274.39 C 826.51 257.70 832.25 240.57 838.82 223.76 M 940.08 101.82 C 939.29 103.46 938.57 105.14 938.10 106.89 C 935.77 115.10 932.74 123.09 930.19 131.23 C 924.02 149.65 918.62 168.33 912.02 186.61 C 924.01 187.01 936.01 186.59 948.01 186.73 C 955.01 186.59 962.04 187.12 969.01 186.35 C 965.08 175.63 962.03 164.62 958.48 153.77 C 953.40 137.26 947.91 120.88 942.88 104.35 C 942.75 102.79 941.20 102.45 940.08 101.82 Z"
       id="path3" />
    <path
       fill="#010101"
       stroke="#010101"
       stroke-width="0.09375"
       opacity="1.00"
       d=" M 1275.18 36.84 C 1338.63 36.43 1402.09 36.39 1465.54 36.66 C 1465.35 54.65 1465.56 72.65 1465.44 90.65 C 1423.92 90.60 1382.39 90.65 1340.87 90.55 C 1340.73 102.47 1340.54 114.41 1341.25 126.31 C 1359.83 126.35 1378.41 126.04 1396.99 126.19 C 1403.32 126.16 1409.66 126.13 1416.00 126.21 C 1428.89 126.06 1441.79 126.36 1454.69 126.11 C 1454.34 143.55 1454.52 161.00 1454.59 178.45 C 1416.69 178.13 1378.80 178.46 1340.91 178.14 C 1340.69 191.04 1340.72 203.94 1340.86 216.84 C 1351.55 217.49 1362.27 216.68 1372.99 216.94 C 1405.06 217.04 1437.13 216.73 1469.21 217.11 C 1468.61 232.74 1468.83 248.39 1468.81 264.03 C 1468.76 267.44 1468.83 270.85 1469.25 274.23 C 1412.84 274.21 1356.43 274.24 1300.02 274.22 C 1291.71 274.28 1283.39 274.08 1275.08 274.37 C 1275.24 195.20 1275.09 116.02 1275.18 36.84 Z"
       id="path4" />
    <path
       fill="#010101"
       stroke="#010101"
       stroke-width="0.09375"
       opacity="1.00"
       d=" M 35.18 37.63 C 102.38 37.80 169.58 37.60 236.78 37.72 C 236.62 58.39 236.76 79.07 236.70 99.75 C 234.05 99.63 231.11 100.38 228.63 99.38 C 225.34 87.41 221.07 74.85 211.58 66.29 C 205.99 60.99 198.69 57.79 191.08 56.83 C 178.79 55.85 166.47 56.81 154.17 56.58 C 154.22 122.99 154.20 189.39 154.17 255.80 C 163.57 255.82 172.97 255.79 182.36 255.81 C 182.42 261.99 182.20 268.18 182.36 274.36 C 151.02 274.43 119.68 274.22 88.33 274.49 C 88.51 268.26 88.60 262.02 88.50 255.79 C 97.87 255.74 107.25 255.98 116.60 255.56 C 116.63 189.28 116.39 122.99 116.72 56.71 C 106.47 56.66 96.22 56.29 85.98 56.67 C 74.78 56.41 64.11 62.39 57.15 70.94 C 50.28 79.27 45.44 89.17 41.98 99.36 C 39.63 99.71 37.25 99.87 34.88 99.86 C 34.76 86.90 34.98 73.95 35.14 61.00 C 34.89 53.20 34.86 45.42 35.18 37.63 Z"
       id="path5" />
    <path
       fill="#010101"
       stroke="#010101"
       stroke-width="0.09375"
       opacity="1.00"
       d=" M 252.63 37.63 C 274.45 37.71 296.27 37.71 318.08 37.75 C 318.15 44.03 317.97 50.32 318.21 56.60 C 308.75 56.81 299.30 56.66 289.84 56.70 C 290.50 80.11 289.64 103.53 289.87 126.95 C 290.03 131.75 289.35 136.62 290.44 141.35 C 297.61 141.17 304.80 141.40 311.96 140.85 C 332.67 140.74 353.37 140.82 374.08 140.83 C 380.47 140.81 386.97 141.99 393.29 140.69 C 393.04 113.01 393.34 85.33 393.14 57.65 C 392.93 57.40 392.51 56.90 392.30 56.64 C 383.05 56.71 373.80 56.46 364.55 56.72 C 364.79 50.39 364.81 44.06 364.80 37.73 C 395.93 37.77 427.06 37.50 458.19 37.70 C 458.17 44.04 457.96 50.39 458.15 56.73 C 448.97 56.71 439.80 56.70 430.62 56.73 C 430.62 123.24 430.66 189.76 430.59 256.27 C 439.96 255.75 449.34 255.73 458.72 255.79 C 458.66 261.97 458.61 268.15 458.68 274.33 C 427.34 274.82 396.00 274.18 364.65 274.39 C 364.76 268.19 364.81 261.99 364.88 255.79 C 374.36 255.77 383.85 255.93 393.33 255.69 C 393.07 226.69 393.27 197.68 393.23 168.68 C 358.76 168.61 324.30 168.84 289.84 168.67 C 289.81 196.47 289.92 224.26 289.85 252.05 C 289.87 253.49 290.19 254.90 290.43 256.31 C 299.66 256.34 308.88 255.67 318.11 256.25 C 318.20 262.27 317.58 268.29 318.01 274.31 C 286.76 274.42 255.51 274.05 224.26 274.48 C 224.35 268.25 224.33 262.02 224.46 255.79 C 229.34 255.60 234.20 256.25 239.07 256.04 C 243.65 255.57 248.26 256.65 252.82 255.76 C 252.11 220.84 252.73 185.91 252.47 150.99 C 252.47 113.20 252.58 75.42 252.63 37.63 Z"
       id="path6" />
    <path
       fill="#010101"
       stroke="#010101"
       stroke-width="0.09375"
       opacity="1.00"
       d=" M 466.22 37.67 C 530.76 37.66 595.31 37.79 659.86 37.67 C 660.35 55.09 660.06 72.55 660.14 89.99 C 660.20 96.84 660.12 103.70 660.31 110.55 C 657.77 110.67 655.22 110.70 652.69 110.63 C 653.18 97.47 650.89 83.31 642.16 72.96 C 633.23 62.49 619.19 57.97 605.84 57.15 L 605.26 56.77 C 588.18 56.67 571.10 56.43 554.03 56.58 C 546.52 56.58 538.99 56.95 531.49 56.45 C 531.81 84.74 530.74 113.04 531.41 141.32 C 543.95 141.20 556.52 141.64 569.04 140.60 C 574.67 139.87 580.86 138.30 584.32 133.39 C 590.86 124.68 592.99 113.71 595.97 103.46 C 598.53 103.26 601.09 103.22 603.66 103.24 C 603.85 137.90 603.54 172.56 603.81 207.21 C 601.11 207.32 598.42 207.50 595.74 207.71 C 594.10 199.48 591.94 191.24 588.22 183.69 C 584.94 177.87 579.88 172.49 573.18 170.84 C 559.48 167.03 545.14 169.26 531.14 168.56 C 531.26 197.78 531.18 227.00 531.39 256.23 C 550.60 256.51 569.79 255.65 589.01 255.81 C 603.59 256.13 618.89 252.75 630.44 243.43 C 636.71 238.36 641.88 231.98 645.60 224.84 C 649.92 217.44 651.66 208.97 653.49 200.71 C 656.07 200.59 658.65 200.53 661.24 200.56 C 661.17 225.12 661.17 249.67 661.16 274.23 C 596.23 274.14 531.30 274.37 466.38 274.37 C 465.87 268.19 466.43 261.98 466.15 255.80 C 475.54 255.74 484.94 255.89 494.33 255.71 C 494.00 189.39 494.20 123.06 494.26 56.73 C 484.89 56.67 475.52 56.75 466.15 56.68 C 466.29 50.35 466.28 44.01 466.22 37.67 Z"
       id="path7" />
  </g>
  <path
     fill="#878780"
     stroke="#878780"
     stroke-width="0.09375"
     opacity="1"
     d="m 687.6,307.88 c 30.25,-0.13 60.5,-0.06 90.74,-0.17 -0.18,7.06 -0.31,14.12 -0.52,21.18 -11.15,-0.05 -22.3,-0.33 -33.43,0.23 0.32,30.15 -0.28,60.31 0.3,90.45 -8.05,0.35 -16.11,0.06 -24.15,0.37 0.07,-30.28 -0.04,-60.56 0.09,-90.84 -10.96,-0.54 -21.99,-0.5 -32.95,0.08 -0.1,-7.1 -0.07,-14.2 -0.08,-21.3 z"
     id="path9"
     style="fill:#7b7b84;fill-opacity:1" />
  <path
     fill="#878780"
     stroke="#878780"
     stroke-width="0.09375"
     opacity="1"
     d="m 790.67,307.8 c 8.2,-0.07 16.4,-0.09 24.61,-0.22 0.08,14.37 -0.12,28.75 -0.04,43.13 12.93,0.36 25.88,-0.32 38.8,0.49 2.13,0.1 4.24,-0.27 6.36,-0.57 -0.42,-14.27 -0.04,-28.55 -0.19,-42.82 8.23,-0.13 16.46,-0.07 24.69,-0.25 -0.18,37.36 0.02,74.74 -0.15,112.11 -8.17,0.34 -16.35,-0.1 -24.52,0.15 0.01,-16.03 0.07,-32.07 0.01,-48.1 -15.01,-0.49 -30.04,-0.21 -45.05,-0.19 -0.22,16.1 0.17,32.2 0.01,48.3 -8.16,-0.14 -16.31,-0.12 -24.46,-0.32 0.07,-37.24 0.05,-74.47 -0.07,-111.71 z"
     id="path10"
     style="fill:#7b7b84;fill-opacity:1" />
  <path
     fill="#878780"
     stroke="#878780"
     stroke-width="0.09375"
     opacity="1"
     d="m 934.65,312.66 c 0.68,-1.62 0.95,-3.54 2.13,-4.88 8.09,-0.16 16.18,-0.05 24.27,-0.16 5.06,12.28 9.24,24.9 14.05,37.28 9.21,24.93 18.97,49.67 27.79,74.74 -8.41,0.19 -16.82,0.27 -25.23,-0.12 -2.29,-6.51 -4.44,-13.07 -6.64,-19.61 -0.67,-1.84 -1.26,-3.78 -2.5,-5.32 -13.59,-0.32 -27.22,0.13 -40.82,-0.1 -3.21,8.26 -5.37,16.94 -9.08,24.98 -7.94,0.53 -16.03,0.68 -23.92,-0.4 1.17,-5.24 3.51,-10.12 5.31,-15.16 11.36,-30.49 23.34,-60.74 34.64,-91.25 m 13.62,23.37 c -4.78,13.44 -9.72,26.84 -14.2,40.38 9.49,-0.03 18.98,-0.04 28.47,-0.16 -2.63,-9.36 -6.47,-18.31 -9.35,-27.59 -1.59,-4.23 -2.14,-8.94 -4.92,-12.63 z"
     id="path11"
     style="fill:#7b7b84;fill-opacity:1" />
  <path
     fill="#878780"
     stroke="#878780"
     stroke-width="0.09375"
     opacity="1"
     d="m 1012.81,307.78 c 8.12,-0.05 16.23,0.03 24.35,-0.04 0.14,37.31 -0.51,74.61 -0.32,111.91 -7.98,0.17 -15.95,0.07 -23.93,0.03 -0.3,-37.3 -0.09,-74.6 -0.1,-111.9 z"
     id="path12"
     style="fill:#7b7b84;fill-opacity:1" />
  <path
     fill="#878780"
     stroke="#878780"
     stroke-width="0.09375"
     opacity="1"
     d="m 1058.78,307.85 c 8.04,-0.09 16.07,-0.12 24.11,-0.18 -0.13,30.35 -0.18,60.7 0.05,91.05 15,0.17 30.01,-0.2 45.01,0.01 2.95,0.16 6.08,-0.43 8.93,0.5 1.09,6.73 0.03,13.8 -0.32,20.64 -25.95,-0.15 -51.91,0.08 -77.86,-0.26 0.03,-37.25 -0.08,-74.51 0.08,-111.76 z"
     id="path13"
     style="fill:#7b7b84;fill-opacity:1" />
  <path
     fill="#878780"
     stroke="#878780"
     stroke-width="0.09375"
     opacity="1"
     d="m 1181,307.65 c 8.33,0.1 16.66,0.08 25,-0.09 7.89,22.1 16.32,43.99 24.53,65.98 5.69,15.29 11.74,30.46 16.9,45.94 -8.47,0.54 -16.95,0.27 -25.42,0.33 -2.87,-8.46 -4.92,-17.24 -8.57,-25.4 -13.52,0.49 -27.07,0.06 -40.6,-0.04 -3.81,8.16 -6.17,16.87 -9.49,25.22 -8.1,0.5 -16.23,0.3 -24.33,0.07 13.14,-37.65 28.7,-74.41 41.98,-112.01 m -2.12,68.69 c 9.41,0.1 18.83,0.06 28.26,-0.04 -1.05,-5.1 -3.17,-9.87 -4.84,-14.78 -3.27,-8.61 -5.32,-17.69 -9.39,-25.97 -4.43,13.68 -9.65,27.09 -14.03,40.79 z"
     id="path14"
     style="fill:#7b7b84;fill-opacity:1" />
  <path
     fill="#878780"
     stroke="#878780"
     stroke-width="0.09375"
     opacity="1"
     d="m 1257.26,307.83 c 8.02,-0.25 16.05,0.04 24.07,-0.42 14.19,24.03 29.43,47.44 43.92,71.29 0.78,1.37 1.98,2.43 3.04,3.6 -0.23,-24.78 -0.04,-49.56 -0.08,-74.34 7.64,-0.17 15.29,-0.16 22.93,-0.27 0.09,37.33 0.02,74.66 -0.39,111.99 -8.09,-0.1 -16.19,-0.13 -24.26,-0.23 -4.74,-8.72 -10.39,-16.9 -15.42,-25.45 -5.59,-9.4 -11.41,-18.65 -17.32,-27.84 -4.42,-6.81 -8.21,-14.04 -13.23,-20.44 -0.41,24.67 -0.15,49.34 -0.42,74.01 -7.59,0.09 -15.18,-0.05 -22.76,0.05 -0.1,-37.31 -0.24,-74.64 -0.08,-111.95 z"
     id="path15"
     style="fill:#7b7b84;fill-opacity:1" />
  <path
     fill="#878780"
     stroke="#878780"
     stroke-width="0.09375"
     opacity="1"
     d="m 1372.68,307.85 c 16.42,-0.05 32.83,-0.22 49.25,-0.12 10.11,-0.03 20.08,3.28 28.44,8.91 11.54,7.68 17.48,21.19 20.26,34.33 1.73,10.83 1.25,22.13 -2.26,32.57 -3.31,10.62 -8.9,21.23 -18.49,27.41 -6.87,4.46 -14.5,8.6 -22.89,8.69 -18.09,0.3 -36.19,0.06 -54.28,0.09 -0.05,-37.29 -0.04,-74.59 -0.03,-111.88 m 24.12,21.44 c -0.18,12.23 0.04,24.46 0,36.69 0.16,10.89 -0.38,21.8 0.24,32.68 7.68,0.19 15.36,0.2 23.04,0.05 8.35,-0.12 16.62,-4.41 21.13,-11.51 4.5,-7.15 5.6,-15.9 4.99,-24.18 -0.62,-7.24 -1.09,-14.89 -5,-21.23 -4.32,-7.44 -12.62,-12.16 -21.14,-12.63 -7.74,-0.54 -15.54,-0.57 -23.26,0.13 z"
     id="path16"
     style="fill:#7b7b84;fill-opacity:1" />
</svg>
